<?xml version="1.0" standalone="no"?>
<!DOCTYPE svg PUBLIC "-//W3C//DTD SVG 20010904//EN"
 "http://www.w3.org/TR/2001/REC-SVG-20010904/DTD/svg10.dtd">
<svg version="1.0" xmlns="http://www.w3.org/2000/svg"
 width="1945.000000pt" height="555.000000pt" viewBox="0 0 1945.000000 555.000000"
 preserveAspectRatio="xMidYMid meet">
<metadata>
Created by potrace 1.16, written by Peter Selinger 2001-2019
</metadata>
<g transform="translate(0.000000,555.000000) scale(0.100000,-0.100000)"
fill="#A87538" stroke="none">
<path d="M2803 5273 c-162 -137 -1533 -1286 -2178 -1827 -242 -202 -448 -377
-457 -388 -37 -42 -93 30 842 -1083 69 -82 398 -474 730 -870 332 -396 637
-759 677 -807 79 -94 102 -108 136 -85 12 8 213 176 447 372 234 197 600 504
814 684 214 179 450 378 526 441 75 63 255 215 401 337 590 494 594 498 597
524 2 21 -81 126 -453 568 -251 299 -543 647 -649 774 -107 128 -247 295 -312
372 -132 156 -386 459 -711 848 -186 221 -220 257 -243 257 -21 0 -63 -30
-167 -117z m209 -129 c122 -169 234 -424 278 -636 19 -94 44 -317 36 -325 -4
-5 -671 786 -675 800 -3 12 281 248 293 244 6 -2 37 -39 68 -83z m-330 -384
c57 -69 211 -253 342 -410 131 -157 252 -297 268 -312 30 -26 31 -28 24 -90
-18 -157 -83 -395 -139 -503 l-23 -47 -435 519 c-238 285 -462 550 -496 590
l-63 72 63 54 c243 209 331 278 342 265 7 -7 59 -69 117 -138z m979 -341 c178
-212 486 -579 684 -815 845 -1006 778 -924 748 -924 -16 0 -228 18 -473 40
-245 21 -715 62 -1045 90 -330 29 -608 55 -618 58 -15 6 -9 17 43 77 191 219
337 515 407 827 26 116 27 137 27 373 0 222 -2 262 -22 355 -19 86 -63 243
-89 310 -8 23 -10 25 338 -391z m-1207 -369 c187 -223 409 -487 493 -587 l152
-181 -56 -84 c-64 -97 -144 -196 -205 -255 l-43 -43 -540 644 c-297 354 -540
648 -540 654 0 5 81 77 179 160 l179 150 21 -26 c11 -15 174 -209 360 -432z
m-679 -117 c129 -152 155 -188 143 -197 -13 -10 -649 -544 -1048 -879 -91 -77
-172 -147 -180 -158 -14 -17 -18 -15 -82 29 -92 65 -231 186 -277 241 l-38 46
659 553 c363 303 661 552 662 552 2 0 75 -84 161 -187z m410 -488 c160 -191
167 -200 142 -205 -15 -3 -86 -55 -159 -116 -73 -61 -263 -220 -423 -354 -355
-297 -351 -293 -364 -317 -10 -19 -14 -20 -87 -7 -96 17 -209 47 -299 81 -83
31 -215 90 -215 96 0 6 192 169 635 539 116 96 296 247 400 335 105 88 193
158 196 154 4 -3 82 -96 174 -206z m400 -477 l124 -146 -42 -35 c-76 -62 -216
-148 -330 -202 -218 -103 -429 -154 -672 -162 -144 -5 -149 -4 -133 13 10 10
203 173 430 363 227 191 418 357 423 369 12 27 -7 46 200 -200z m750 -254
c225 -19 411 -37 414 -40 2 -2 2 -5 0 -7 -4 -3 -120 -101 -534 -447 -88 -73
-216 -181 -285 -239 -69 -58 -153 -129 -188 -159 -35 -29 -68 -52 -72 -50 -12
4 -510 598 -510 608 0 4 35 20 78 35 169 61 417 204 537 310 38 33 43 35 95
30 30 -3 239 -21 465 -41z m1220 -105 c330 -29 602 -54 604 -55 2 -2 2 -6 0
-7 -79 -66 -1736 -1456 -2383 -1999 -169 -142 -243 -198 -252 -192 -23 16
-555 656 -552 664 2 4 115 102 252 216 137 115 410 344 606 509 196 165 491
413 655 550 165 138 328 276 364 307 37 31 75 57 86 58 11 0 290 -23 620 -51z
m-3787 -112 c139 -73 379 -148 567 -178 131 -21 438 -16 575 9 89 16 118 18
126 9 81 -85 544 -651 538 -656 -5 -5 -121 -102 -259 -217 -137 -114 -290
-242 -338 -283 l-88 -75 -24 30 c-12 16 -96 117 -187 224 -90 107 -341 406
-557 665 -217 259 -401 479 -410 489 -18 22 -15 21 57 -17z"/>
<path d="M16673 3955 c-78 -21 -124 -48 -192 -111 -79 -73 -122 -157 -129
-253 -15 -219 120 -380 359 -426 126 -24 159 -36 200 -75 85 -80 71 -220 -28
-281 -29 -18 -50 -22 -104 -21 -77 1 -125 19 -169 63 -16 16 -31 29 -34 29 -4
0 -59 -39 -123 -87 l-117 -86 54 -49 c80 -72 195 -126 309 -145 84 -14 101
-14 170 -1 101 20 181 60 253 127 180 166 195 467 32 642 -82 86 -156 120
-317 144 -155 24 -196 49 -204 127 -5 53 11 85 57 116 47 32 112 26 179 -15
l48 -30 109 79 c60 43 110 82 112 87 5 14 -87 88 -150 121 -60 32 -168 60
-228 59 -19 0 -59 -7 -87 -14z"/>
<path d="M8640 3245 l0 -715 145 0 145 0 0 405 c0 223 3 405 6 405 5 0 747
-615 952 -788 l52 -44 0 716 0 716 -145 0 -145 0 0 -406 c0 -239 -4 -404 -9
-402 -8 3 -157 127 -371 308 -226 192 -620 520 -625 520 -3 0 -5 -322 -5 -715z"/>
<path d="M11800 3246 l0 -716 145 0 145 0 0 406 0 405 28 -20 c15 -10 234
-192 487 -403 254 -211 468 -389 478 -397 16 -13 17 28 17 703 l0 716 -145 0
-145 0 0 -405 c0 -223 -3 -405 -7 -405 -5 0 -118 93 -253 206 -135 113 -310
261 -390 327 -80 67 -147 124 -150 127 -5 5 -162 135 -192 159 -17 13 -18 -22
-18 -703z"/>
<path d="M8080 3235 l0 -705 145 0 145 0 0 705 0 705 -145 0 -145 0 0 -705z"/>
<path d="M10220 3235 l0 -705 145 0 145 0 0 310 0 310 265 0 265 0 0 130 0
130 -265 0 -265 0 0 135 0 135 230 0 230 0 0 130 0 130 -375 0 -375 0 0 -705z"/>
<path d="M11238 3255 c-1 -377 -2 -693 -2 -702 -1 -16 12 -18 144 -18 l145 0
0 700 0 700 -142 3 -143 3 -2 -686z"/>
<path d="M13370 3235 l0 -705 145 0 145 0 0 705 0 705 -145 0 -145 0 0 -705z"/>
<path d="M13840 3810 l0 -130 175 0 175 0 0 -575 0 -575 145 0 145 0 0 575 0
575 185 0 185 0 0 130 0 130 -505 0 -505 0 0 -130z"/>
<path d="M14890 3936 c0 -6 96 -164 332 -552 91 -149 186 -305 212 -347 l46
-76 0 -215 0 -216 145 0 145 0 0 226 0 226 103 172 c57 94 188 309 290 479
l187 307 -153 0 -153 0 -204 -345 c-113 -190 -207 -345 -210 -345 -3 0 -97
155 -209 345 l-203 345 -164 0 c-90 0 -164 -2 -164 -4z"/>
<path d="M16767 2249 c-96 -23 -197 -102 -237 -186 -27 -57 -50 -147 -50 -194
0 -169 93 -317 232 -370 123 -47 288 -29 401 43 l47 30 0 149 0 149 -145 0
-145 0 0 -40 0 -40 90 -1 c50 -1 96 -2 103 -3 8 -1 13 -26 15 -82 3 -78 2 -82
-23 -98 -77 -51 -223 -63 -308 -27 -104 45 -167 150 -167 280 0 135 48 226
149 279 53 29 68 32 142 32 69 0 94 -5 138 -25 30 -14 55 -24 56 -23 1 2 10
17 19 35 16 31 16 32 -17 52 -71 44 -207 62 -300 40z"/>
<path d="M5900 1866 l0 -386 45 0 c36 0 45 3 45 18 1 9 2 75 3 147 l2 129 100
2 c141 2 211 34 262 122 52 89 30 233 -44 292 -58 46 -91 53 -255 58 l-158 4
0 -386z m318 280 c103 -54 96 -218 -11 -269 -30 -14 -58 -17 -125 -15 l-87 3
-3 130 c-4 188 -10 178 101 173 61 -3 103 -10 125 -22z"/>
<path d="M7375 2238 c-3 -7 -4 -180 -3 -383 l3 -370 40 0 40 0 0 380 0 380
-38 3 c-24 2 -39 -1 -42 -10z"/>
<path d="M11040 2101 l0 -150 -37 16 c-58 24 -178 13 -231 -21 -87 -55 -121
-116 -122 -216 0 -97 15 -138 70 -192 39 -37 59 -48 105 -58 69 -14 133 -2
183 36 l32 25 0 -31 c0 -30 1 -31 43 -28 l42 3 0 380 0 380 -42 3 -43 3 0
-150z m-34 -216 l35 -14 -3 -133 -3 -132 -33 -23 c-48 -32 -113 -39 -168 -18
-133 51 -129 270 6 324 38 15 126 13 166 -4z"/>
<path d="M11575 2239 c-3 -8 -4 -181 -3 -384 l3 -370 43 -3 42 -3 0 156 0 156
67 -3 67 -3 59 -75 c32 -41 85 -110 118 -152 l60 -78 49 0 c28 0 50 3 50 6 0
3 -50 70 -111 147 -62 78 -117 148 -123 156 -8 11 -8 15 1 18 6 2 31 17 55 33
140 93 126 323 -25 386 -56 24 -344 34 -352 13z m309 -94 c97 -46 94 -189 -6
-245 -34 -19 -57 -23 -127 -24 l-86 -1 -3 134 c-1 74 0 141 3 149 8 21 168 11
219 -13z"/>
<path d="M18199 2243 c0 -4 0 -168 0 -363 l0 -355 41 -22 c87 -46 225 -41 312
10 79 47 113 114 112 222 0 90 -19 140 -74 191 -40 38 -82 52 -156 53 -47 1
-72 -5 -107 -24 l-46 -24 -3 157 -3 157 -37 3 c-21 2 -38 0 -39 -5z m313 -368
c71 -48 89 -173 37 -250 -45 -67 -153 -95 -234 -61 l-35 15 0 135 0 135 28 19
c38 27 50 30 112 31 43 1 63 -4 92 -24z"/>
<path d="M18840 1865 l0 -386 43 3 42 3 3 173 2 172 210 0 210 0 2 -172 3
-173 48 -3 47 -3 -2 383 -3 383 -47 3 -48 3 0 -170 0 -171 -210 0 -210 0 -2
168 -3 167 -42 3 -43 3 0 -386z"/>
<path d="M12802 2198 c-7 -7 -12 -24 -12 -38 0 -33 17 -50 50 -50 33 0 50 17
50 50 0 33 -17 50 -50 50 -14 0 -31 -5 -38 -12z"/>
<path d="M13702 2198 c-7 -7 -12 -24 -12 -38 0 -33 17 -50 50 -50 33 0 50 17
50 50 0 33 -17 50 -50 50 -14 0 -31 -5 -38 -12z"/>
<path d="M8452 1843 c3 -293 7 -312 65 -350 35 -23 136 -23 180 0 30 16 31 18
20 47 -9 25 -16 30 -32 25 -64 -19 -93 -18 -118 7 -30 30 -40 91 -35 227 l3
94 86 -1 87 -1 4 39 3 39 -90 3 -90 3 -3 68 -3 67 -40 0 -40 0 3 -267z"/>
<path d="M8830 1853 c0 -232 2 -262 19 -300 27 -59 61 -78 137 -77 91 1 134
33 102 77 -11 14 -18 15 -49 6 -48 -15 -84 -5 -106 28 -15 23 -18 50 -18 166
l0 140 88 -2 87 -2 0 40 0 40 -87 3 -88 3 -3 68 -3 67 -39 0 -40 0 0 -257z"/>
<path d="M6543 1964 c-33 -12 -43 -21 -43 -37 0 -45 12 -50 74 -32 67 20 135
14 160 -13 15 -18 42 -119 34 -128 -3 -2 -21 3 -41 11 -78 32 -203 8 -241 -46
-82 -118 12 -268 152 -243 44 8 84 27 101 48 20 24 31 19 31 -15 0 -29 2 -30
38 -27 l37 3 0 185 c-1 207 -9 240 -69 283 -40 28 -168 35 -233 11z m192 -268
c31 -13 35 -19 35 -50 0 -28 -7 -40 -35 -62 -50 -38 -120 -44 -157 -14 -48 37
-35 112 22 133 29 11 101 7 135 -7z"/>
<path d="M7145 1968 c-11 -6 -30 -20 -42 -31 l-23 -20 0 26 c0 25 -3 27 -40
27 l-40 0 0 -245 0 -245 40 0 40 0 0 181 0 181 30 30 c29 28 35 30 89 26 l58
-4 13 34 c10 28 10 36 -1 43 -20 12 -100 10 -124 -3z"/>
<path d="M8005 1965 c-53 -19 -120 -91 -136 -146 -32 -113 2 -241 80 -297 80
-58 206 -67 299 -20 39 19 47 27 44 48 -4 38 -16 43 -53 25 -18 -10 -61 -20
-95 -23 -81 -6 -140 20 -172 77 -41 73 -45 71 167 71 l189 0 5 28 c8 42 -11
122 -39 165 -50 76 -184 109 -289 72z m202 -97 c22 -20 49 -85 40 -94 -2 -2
-72 -3 -155 -2 l-151 3 19 42 c10 23 30 49 45 59 57 37 158 33 202 -8z"/>
<path d="M10218 1952 l-58 -31 0 25 c0 22 -4 24 -45 24 l-45 0 2 -242 3 -243
43 -3 42 -3 0 185 0 184 37 23 c50 31 135 38 179 14 56 -30 64 -62 64 -245 l0
-161 43 3 42 3 -2 178 c-2 159 -4 183 -23 222 -29 60 -75 87 -158 92 -60 5
-73 2 -124 -25z"/>
<path d="M12321 1969 c-46 -14 -124 -94 -139 -145 -35 -120 0 -247 85 -305 84
-58 223 -62 311 -9 35 21 39 36 19 64 -13 18 -15 18 -48 0 -51 -27 -178 -26
-215 2 -36 26 -61 62 -70 97 l-6 27 190 0 c185 0 191 1 197 21 16 49 -19 162
-62 201 -56 51 -174 72 -262 47z m183 -90 c28 -22 56 -68 56 -94 0 -13 -21
-15 -150 -15 -165 0 -166 0 -135 61 25 47 70 69 141 69 47 0 67 -5 88 -21z"/>
<path d="M13248 1970 c-15 -4 -40 -17 -57 -29 -37 -27 -41 -26 -41 4 0 23 -4
25 -40 25 l-40 0 0 -245 0 -245 40 0 40 0 0 179 0 180 37 28 c32 25 45 28 109
28 62 0 76 -3 97 -23 36 -34 47 -93 47 -251 l0 -141 40 0 40 0 0 168 c0 186
-8 227 -50 276 -44 49 -143 70 -222 46z"/>
<path d="M14072 1972 c-36 -11 -93 -62 -108 -98 -31 -73 -11 -150 52 -203 36
-30 39 -36 36 -76 -4 -40 -6 -43 -42 -54 -111 -33 -144 -164 -59 -235 42 -35
100 -50 199 -50 105 0 161 16 207 58 30 27 36 41 40 82 8 97 -60 152 -202 163
l-80 6 0 30 c0 29 2 30 55 36 129 14 202 104 172 213 -6 22 -8 44 -6 47 2 4
22 10 44 14 38 6 40 9 40 41 0 19 -2 34 -4 34 -3 0 -35 -7 -72 -16 -60 -14
-70 -14 -106 0 -39 16 -123 20 -166 8z m155 -77 c28 -19 43 -53 43 -102 0 -89
-137 -131 -210 -63 -57 54 -33 156 43 179 40 13 92 7 124 -14z m37 -417 c58
-30 74 -80 37 -117 -38 -38 -161 -53 -242 -31 -112 31 -100 136 18 161 47 10
158 2 187 -13z"/>
<path d="M15288 1970 c-15 -4 -40 -17 -57 -29 -37 -27 -41 -26 -41 4 0 23 -4
25 -40 25 l-40 0 0 -245 0 -245 40 0 40 0 0 178 c0 197 -2 191 69 227 51 26
143 17 177 -17 35 -35 43 -81 44 -245 l0 -143 40 0 40 0 0 168 c0 186 -8 227
-50 276 -44 49 -143 70 -222 46z"/>
<path d="M15792 1959 c-79 -40 -115 -125 -87 -209 15 -45 62 -100 85 -100 5 0
8 -20 6 -46 -2 -43 -4 -46 -52 -68 -66 -31 -86 -56 -92 -114 -6 -70 15 -104
85 -139 52 -25 69 -28 158 -28 89 0 106 3 157 28 61 30 85 58 89 103 4 55 -1
73 -31 108 -37 42 -103 66 -181 66 -47 0 -60 4 -69 19 -18 34 -2 51 46 51 62
0 130 35 161 81 23 35 25 46 21 112 l-5 74 41 9 c32 7 42 14 44 33 6 37 -9 41
-78 25 -57 -13 -68 -13 -102 1 -56 22 -144 19 -196 -6z m157 -55 c76 -30 92
-126 30 -178 -25 -21 -41 -26 -85 -26 -45 0 -59 5 -86 29 -29 25 -33 35 -32
75 1 51 21 81 69 102 40 17 57 17 104 -2z m70 -432 c48 -23 62 -62 35 -99 -26
-35 -74 -51 -155 -52 -111 -2 -169 28 -169 85 0 41 30 72 79 80 20 3 41 7 46
10 22 8 131 -7 164 -24z"/>
<path d="M17488 1970 c-15 -4 -40 -17 -57 -29 -37 -27 -41 -26 -41 4 0 23 -4
25 -40 25 l-40 0 0 -245 0 -245 40 0 40 0 0 178 c0 172 1 179 23 200 29 28 70
42 118 42 31 0 47 -7 70 -29 l29 -29 0 -181 0 -181 45 0 45 0 0 180 c0 168 1
181 20 200 28 28 63 40 116 40 35 0 50 -5 68 -25 32 -34 36 -62 36 -241 l0
-154 40 0 40 0 0 183 c0 203 -7 240 -49 281 -55 53 -177 45 -246 -16 l-35 -30
-22 27 c-38 49 -124 68 -200 45z"/>
<path d="M7581 1855 l-101 -116 111 -129 112 -130 53 0 c30 0 54 2 54 4 0 2
-49 59 -110 127 -60 68 -110 129 -110 134 0 6 37 51 83 100 123 136 118 125
59 125 l-51 0 -100 -115z"/>
<path d="M9470 1787 c0 -172 1 -187 23 -228 49 -93 173 -116 279 -50 27 17 51
31 53 31 2 0 3 -12 2 -27 -2 -26 1 -28 41 -31 l42 -3 0 245 0 246 -40 0 -40 0
0 -42 c-1 -24 -2 -104 -3 -178 l-2 -134 -41 -29 c-74 -52 -171 -47 -211 12
-15 22 -19 53 -21 199 l-4 172 -39 0 -39 0 0 -183z"/>
<path d="M12800 1725 l0 -245 40 0 40 0 0 245 0 245 -40 0 -40 0 0 -245z"/>
<path d="M13700 1725 l0 -245 40 0 40 0 0 245 0 245 -40 0 -40 0 0 -245z"/>
<path d="M14502 1788 c5 -202 12 -235 67 -280 62 -53 179 -47 254 13 l37 30 0
-36 c0 -34 1 -35 40 -35 l40 0 0 245 0 245 -40 0 -40 0 0 -173 0 -173 -27 -26
c-70 -67 -181 -65 -223 4 -18 30 -20 51 -20 201 l0 167 -46 0 -46 0 4 -182z"/>
</g>
</svg>
